<?xml version="1.0" encoding="UTF-8" standalone="no"?><!DOCTYPE svg PUBLIC "-//W3C//DTD SVG 1.1//EN" "http://www.w3.org/Graphics/SVG/1.1/DTD/svg11.dtd"><svg width="100%" height="100%" viewBox="0 0 128 196" version="1.1" xmlns="http://www.w3.org/2000/svg" xmlns:xlink="http://www.w3.org/1999/xlink" xml:space="preserve" xmlns:serif="http://www.serif.com/" style="fill-rule:evenodd;clip-rule:evenodd;stroke-linejoin:round;stroke-miterlimit:2;"><g><path d="M41.296,0c-5.031,-0.014 -15.088,1.989 -14.807,4.871c0.299,3.065 11.622,5.395 11.376,24.736c-0.999,47.335 -1.045,16.261 -0.543,61.645c-1.681,9.959 -15.489,21.641 -19.956,30.032c-15.393,28.917 -18.251,46.875 -17.158,59.804c1.196,14.151 30.011,14.907 40.65,14.912c10.639,0.004 17.288,-0.142 17.422,-14.912c0.385,-42.477 0.358,-56.874 -0.795,-60.875c-3.172,-11.014 -11.189,-23.615 -11.554,-29.047l-1.377,-61.658c0.436,-20.26 12.035,-21.364 12.118,-24.551c0.093,-3.552 -10.345,-4.943 -15.376,-4.957Z" style="fill:#3d9d6f;"/><path d="M110.794,0c-5.031,-0.014 -15.089,1.989 -14.807,4.871c0.299,3.065 11.622,5.395 11.376,24.736c-0.999,47.335 -1.045,16.261 -0.543,61.645c-1.681,9.959 -15.489,21.641 -19.956,30.032c-15.393,28.917 -18.251,46.875 -17.158,59.804c1.196,14.151 30.011,14.907 40.65,14.912c10.639,0.004 17.288,-0.142 17.422,-14.912c0.385,-42.477 0.358,-56.874 -0.795,-60.875c-3.172,-11.014 -11.189,-23.615 -11.554,-29.047l-1.377,-61.658c0.436,-20.26 12.035,-21.364 12.118,-24.551c0.093,-3.552 -10.345,-4.943 -15.376,-4.957Z" style="fill:#3d9d6f;"/></g></svg>