<?xml version="1.0" encoding="UTF-8" standalone="no"?><!DOCTYPE svg PUBLIC "-//W3C//DTD SVG 1.1//EN"
        "http://www.w3.org/Graphics/SVG/1.1/DTD/svg11.dtd">
<svg width="100%" height="100%" viewBox="0 0 813 196" version="1.1" xmlns="http://www.w3.org/2000/svg"
     xmlns:xlink="http://www.w3.org/1999/xlink" xml:space="preserve" xmlns:serif="http://www.serif.com/"
     style="fill-rule:evenodd;clip-rule:evenodd;stroke-linejoin:round;stroke-miterlimit:2;">
    <defs>
        <style type="text/css">{`
          @font-face {
            font-family: 'ChauPhilomeneOne-Regular';
            src: url('/fonts/ChauPhilomeneOne-Regular.ttf') format('truetype');
          }
        `}</style>
  </defs>
    <g><g transform="matrix(1,0,0,0.99707,0,-3.43396)"><text x="-11.283px" y="196.008px" style="font-family:'ChauPhilomeneOne-Regular', 'Chau Philomene One';font-size:250.735px;fill:#3d9d6f;">P<tspan
        x="103.804px " y="196.008px ">a</tspan>  leElk</text></g><path
        d="M257.351,0c-4.917,-0.014 -14.748,1.988 -14.472,4.869c0.292,3.063 11.359,5.392 11.118,24.725c-0.976,47.314 -1.021,16.254 -0.53,61.617c-1.644,9.954 -15.14,21.631 -19.505,30.018c-15.045,28.904 -17.839,46.854 -16.771,59.778c1.169,14.144 29.333,14.9 39.732,14.904c10.399,0.005 16.897,-0.141 17.028,-14.904c0.376,-42.459 0.35,-56.849 -0.777,-60.848c-3.1,-11.01 -10.936,-23.604 -11.293,-29.034l-1.346,-61.63c0.426,-20.251 11.764,-21.355 11.845,-24.541c0.09,-3.55 -10.112,-4.94 -15.029,-4.954Z"
        style="fill:#3d9d6f;"/><path
        d="M325.278,0c-4.917,-0.014 -14.747,1.988 -14.472,4.869c0.292,3.063 11.359,5.392 11.118,24.725c-0.976,47.314 -1.021,16.254 -0.53,61.617c-1.643,9.954 -15.139,21.631 -19.505,30.018c-15.045,28.904 -17.838,46.854 -16.77,59.778c1.169,14.144 29.332,14.9 39.731,14.904c10.399,0.005 16.897,-0.141 17.028,-14.904c0.376,-42.459 0.35,-56.849 -0.776,-60.848c-3.101,-11.01 -10.937,-23.604 -11.293,-29.034l-1.347,-61.63c0.427,-20.251 11.764,-21.355 11.845,-24.541c0.09,-3.55 -10.112,-4.94 -15.029,-4.954Z"
        style="fill:#3d9d6f;"/></g></svg>