<?xml version="1.0" encoding="UTF-8" standalone="no"?><!DOCTYPE svg PUBLIC "-//W3C//DTD SVG 1.1//EN" "http://www.w3.org/Graphics/SVG/1.1/DTD/svg11.dtd"><svg width="100%" height="100%" viewBox="0 0 21 32" version="1.1" xmlns="http://www.w3.org/2000/svg" xmlns:xlink="http://www.w3.org/1999/xlink" xml:space="preserve" xmlns:serif="http://www.serif.com/" style="fill-rule:evenodd;clip-rule:evenodd;stroke-linejoin:round;stroke-miterlimit:2;"><g><path d="M6.742,0c-0.821,-0.002 -2.463,0.325 -2.417,0.795c0.049,0.501 1.897,0.881 1.857,4.039c-0.163,7.728 -0.171,2.655 -0.089,10.064c-0.274,1.626 -2.528,3.533 -3.258,4.903c-2.513,4.722 -2.979,7.654 -2.801,9.764c0.195,2.311 4.9,2.434 6.637,2.435c1.737,0.001 2.822,-0.023 2.844,-2.435c0.063,-6.935 0.058,-9.285 -0.13,-9.938c-0.518,-1.799 -1.826,-3.856 -1.886,-4.743l-0.225,-10.066c0.071,-3.308 1.965,-3.488 1.979,-4.009c0.015,-0.58 -1.689,-0.807 -2.511,-0.809Z" style="fill:#e79734;"/><path d="M18.089,0c-0.822,-0.002 -2.464,0.325 -2.418,0.795c0.049,0.501 1.898,0.881 1.858,4.039c-0.163,7.728 -0.171,2.655 -0.089,10.064c-0.275,1.626 -2.529,3.533 -3.258,4.903c-2.513,4.722 -2.98,7.654 -2.801,9.764c0.195,2.311 4.899,2.434 6.636,2.435c1.737,0.001 2.823,-0.023 2.845,-2.435c0.063,-6.935 0.058,-9.285 -0.13,-9.938c-0.518,-1.799 -1.827,-3.856 -1.886,-4.743l-0.225,-10.066c0.071,-3.308 1.965,-3.488 1.978,-4.009c0.015,-0.58 -1.689,-0.807 -2.51,-0.809Z" style="fill:#e79734;"/></g></svg>