<?xml version="1.0" encoding="UTF-8" standalone="no"?><!DOCTYPE svg PUBLIC "-//W3C//DTD SVG 1.1//EN" "http://www.w3.org/Graphics/SVG/1.1/DTD/svg11.dtd"><svg width="100%" height="100%" viewBox="0 0 3200 4000" version="1.1" xmlns="http://www.w3.org/2000/svg" xmlns:xlink="http://www.w3.org/1999/xlink" xml:space="preserve" xmlns:serif="http://www.serif.com/" style="fill-rule:evenodd;clip-rule:evenodd;stroke-linejoin:round;stroke-miterlimit:2;"><rect x="0" y="746.91" width="2647.74" height="309.268" style="fill:#446f42;"/><g><g transform="matrix(1,0,0,0.99707,-2.27374e-13,-1.87849)"><text x="8.942px" y="726.941px" style="font-family:'ChauPhilomeneOne-Regular', 'Chau Philomene One';font-size:250.735px;fill:#e79734;">P<tspan x="124.029px " y="726.941px ">a</tspan>  le<tspan x="515.928px 618.729px " y="726.941px 726.941px ">To</tspan>ur<tspan x="947.442px " y="726.941px ">s</tspan></text></g><path d="M277.576,530.933c-4.917,-0.014 -14.747,1.989 -14.472,4.869c0.292,3.063 11.359,5.393 11.118,24.725c-0.976,47.314 -1.021,16.254 -0.53,61.617c-1.643,9.954 -15.139,21.631 -19.505,30.018c-15.045,28.904 -17.838,46.854 -16.77,59.778c1.169,14.144 29.332,14.9 39.731,14.905c10.399,0.004 16.897,-0.142 17.028,-14.905c0.376,-42.459 0.35,-56.849 -0.776,-60.848c-3.101,-11.01 -10.937,-23.604 -11.293,-29.034l-1.347,-61.63c0.427,-20.251 11.764,-21.355 11.845,-24.541c0.09,-3.549 -10.112,-4.94 -15.029,-4.954Z" style="fill:#e79734;"/><path d="M345.504,530.933c-4.917,-0.014 -14.748,1.989 -14.473,4.869c0.293,3.063 11.36,5.393 11.119,24.725c-0.976,47.314 -1.021,16.254 -0.53,61.617c-1.644,9.954 -15.14,21.631 -19.506,30.018c-15.045,28.904 -17.838,46.854 -16.77,59.778c1.169,14.144 29.332,14.9 39.731,14.905c10.399,0.004 16.898,-0.142 17.028,-14.905c0.377,-42.459 0.35,-56.849 -0.776,-60.848c-3.101,-11.01 -10.936,-23.604 -11.293,-29.034l-1.347,-61.63c0.427,-20.251 11.764,-21.355 11.845,-24.541c0.091,-3.549 -10.112,-4.94 -15.028,-4.954Z" style="fill:#e79734;"/></g><g><g transform="matrix(1,0,0,0.99707,0,-1.19579)"><text x="8.942px" y="959.969px" style="font-family:'ChauPhilomeneOne-Regular', 'Chau Philomene One';font-size:250.735px;fill:#fff;">P<tspan x="124.029px " y="959.969px ">a</tspan>  le<tspan x="515.928px 618.729px " y="959.969px 959.969px ">To</tspan>ur<tspan x="947.442px " y="959.969px ">s</tspan></text></g><path d="M277.576,763.961c-4.917,-0.014 -14.747,1.988 -14.472,4.869c0.292,3.063 11.359,5.392 11.118,24.725c-0.976,47.314 -1.021,16.253 -0.53,61.617c-1.643,9.954 -15.139,21.631 -19.505,30.018c-15.045,28.904 -17.838,46.854 -16.77,59.778c1.169,14.144 29.332,14.9 39.731,14.904c10.399,0.005 16.897,-0.142 17.028,-14.904c0.376,-42.459 0.35,-56.849 -0.776,-60.848c-3.101,-11.01 -10.937,-23.604 -11.293,-29.034l-1.347,-61.63c0.427,-20.251 11.764,-21.355 11.845,-24.541c0.09,-3.55 -10.112,-4.94 -15.029,-4.954Z" style="fill:#fff;"/><path d="M345.504,763.961c-4.917,-0.014 -14.748,1.988 -14.473,4.869c0.293,3.063 11.36,5.392 11.119,24.725c-0.976,47.314 -1.021,16.253 -0.53,61.617c-1.644,9.954 -15.14,21.631 -19.506,30.018c-15.045,28.904 -17.838,46.854 -16.77,59.778c1.169,14.144 29.332,14.9 39.731,14.904c10.399,0.005 16.898,-0.142 17.028,-14.904c0.377,-42.459 0.35,-56.849 -0.776,-60.848c-3.101,-11.01 -10.936,-23.604 -11.293,-29.034l-1.347,-61.63c0.427,-20.251 11.764,-21.355 11.845,-24.541c0.091,-3.55 -10.112,-4.94 -15.028,-4.954Z" style="fill:#fff;"/></g><g><g transform="matrix(1,0,0,0.99707,0,-2.54334)"><text x="8.942px" y="500.007px" style="font-family:'ChauPhilomeneOne-Regular', 'Chau Philomene One';font-size:250.735px;">P<tspan x="124.029px " y="500.007px ">a</tspan>  le<tspan x="515.928px 618.729px " y="500.007px 500.007px ">To</tspan>ur<tspan x="947.442px " y="500.007px ">s</tspan></text></g><path d="M277.576,303.999c-4.917,-0.015 -14.747,1.988 -14.472,4.868c0.292,3.063 11.359,5.393 11.118,24.725c-0.976,47.314 -1.021,16.254 -0.53,61.617c-1.643,9.954 -15.139,21.631 -19.505,30.019c-15.045,28.903 -17.838,46.854 -16.77,59.777c1.169,14.144 29.332,14.9 39.731,14.905c10.399,0.004 16.897,-0.142 17.028,-14.905c0.376,-42.459 0.35,-56.848 -0.776,-60.848c-3.101,-11.009 -10.937,-23.604 -11.293,-29.033l-1.347,-61.631c0.427,-20.251 11.764,-21.355 11.845,-24.54c0.09,-3.55 -10.112,-4.94 -15.029,-4.954Z"/><path d="M345.504,303.999c-4.917,-0.015 -14.748,1.988 -14.473,4.868c0.293,3.063 11.36,5.393 11.119,24.725c-0.976,47.314 -1.021,16.254 -0.53,61.617c-1.644,9.954 -15.14,21.631 -19.506,30.019c-15.045,28.903 -17.838,46.854 -16.77,59.777c1.169,14.144 29.332,14.9 39.731,14.905c10.399,0.004 16.898,-0.142 17.028,-14.905c0.377,-42.459 0.35,-56.848 -0.776,-60.848c-3.101,-11.009 -10.936,-23.604 -11.293,-29.033l-1.347,-61.631c0.427,-20.251 11.764,-21.355 11.845,-24.54c0.091,-3.55 -10.112,-4.94 -15.028,-4.954Z"/></g><g><path d="M1249.75,303.999c-5.03,-0.015 -15.088,1.989 -14.807,4.871c0.299,3.064 11.622,5.395 11.376,24.736c-0.999,47.335 -1.045,16.261 -0.543,61.645c-1.681,9.958 -15.489,21.64 -19.956,30.031c-15.393,28.917 -18.251,46.876 -17.158,59.805c1.196,14.151 30.011,14.907 40.65,14.911c10.639,0.005 17.288,-0.142 17.422,-14.911c0.385,-42.478 0.358,-56.874 -0.795,-60.875c-3.172,-11.015 -11.189,-23.615 -11.554,-29.047l-1.377,-61.658c0.436,-20.261 12.036,-21.365 12.118,-24.552c0.093,-3.552 -10.345,-4.942 -15.376,-4.956Z"/><path d="M1319.25,303.999c-5.031,-0.015 -15.088,1.989 -14.807,4.871c0.299,3.064 11.622,5.395 11.376,24.736c-0.999,47.335 -1.045,16.261 -0.543,61.645c-1.681,9.958 -15.489,21.64 -19.956,30.031c-15.393,28.917 -18.251,46.876 -17.158,59.805c1.196,14.151 30.011,14.907 40.65,14.911c10.639,0.005 17.288,-0.142 17.422,-14.911c0.385,-42.478 0.358,-56.874 -0.795,-60.875c-3.172,-11.015 -11.189,-23.615 -11.554,-29.047l-1.377,-61.658c0.436,-20.261 12.035,-21.365 12.118,-24.552c0.093,-3.552 -10.345,-4.942 -15.376,-4.956Z"/></g><g><path d="M1414.97,303.998c-0.821,-0.002 -2.464,0.325 -2.418,0.796c0.049,0.5 1.898,0.881 1.858,4.038c-0.163,7.728 -0.171,2.655 -0.089,10.065c-0.274,1.626 -2.529,3.533 -3.258,4.903c-2.513,4.721 -2.98,7.653 -2.801,9.764c0.195,2.31 4.899,2.434 6.636,2.434c1.737,0.001 2.823,-0.023 2.845,-2.434c0.063,-6.935 0.058,-9.286 -0.13,-9.939c-0.518,-1.798 -1.827,-3.855 -1.886,-4.742l-0.225,-10.067c0.071,-3.308 1.965,-3.488 1.978,-4.008c0.015,-0.58 -1.689,-0.807 -2.51,-0.81Z"/><path d="M1426.32,303.998c-0.821,-0.002 -2.463,0.325 -2.417,0.796c0.049,0.5 1.898,0.881 1.857,4.038c-0.163,7.728 -0.17,2.655 -0.088,10.065c-0.275,1.626 -2.529,3.533 -3.258,4.903c-2.514,4.721 -2.98,7.653 -2.802,9.764c0.195,2.31 4.9,2.434 6.637,2.434c1.737,0.001 2.822,-0.023 2.844,-2.434c0.063,-6.935 0.059,-9.286 -0.129,-9.939c-0.518,-1.798 -1.827,-3.855 -1.887,-4.742l-0.225,-10.067c0.072,-3.308 1.965,-3.488 1.979,-4.008c0.015,-0.58 -1.689,-0.807 -2.511,-0.81Z"/></g><g><path d="M1249.75,537.604c-5.03,-0.015 -15.088,1.989 -14.807,4.871c0.299,3.064 11.622,5.395 11.376,24.736c-0.999,47.335 -1.045,16.261 -0.543,61.645c-1.681,9.958 -15.489,21.64 -19.956,30.031c-15.393,28.917 -18.251,46.876 -17.158,59.805c1.196,14.151 30.011,14.907 40.65,14.911c10.639,0.005 17.288,-0.142 17.422,-14.911c0.385,-42.478 0.358,-56.874 -0.795,-60.875c-3.172,-11.015 -11.189,-23.615 -11.554,-29.047l-1.377,-61.658c0.436,-20.261 12.036,-21.365 12.118,-24.552c0.093,-3.551 -10.345,-4.942 -15.376,-4.956Z" style="fill:#e79734;"/><path d="M1319.25,537.604c-5.031,-0.015 -15.088,1.989 -14.807,4.871c0.299,3.064 11.622,5.395 11.376,24.736c-0.999,47.335 -1.045,16.261 -0.543,61.645c-1.681,9.958 -15.489,21.64 -19.956,30.031c-15.393,28.917 -18.251,46.876 -17.158,59.805c1.196,14.151 30.011,14.907 40.65,14.911c10.639,0.005 17.288,-0.142 17.422,-14.911c0.385,-42.478 0.358,-56.874 -0.795,-60.875c-3.172,-11.015 -11.189,-23.615 -11.554,-29.047l-1.377,-61.658c0.436,-20.261 12.035,-21.365 12.118,-24.552c0.093,-3.551 -10.345,-4.942 -15.376,-4.956Z" style="fill:#e79734;"/></g><g><path d="M1414.97,537.603c-0.821,-0.002 -2.464,0.325 -2.418,0.796c0.049,0.5 1.898,0.881 1.858,4.038c-0.163,7.729 -0.171,2.655 -0.089,10.065c-0.274,1.626 -2.529,3.533 -3.258,4.903c-2.513,4.721 -2.98,7.653 -2.801,9.764c0.195,2.31 4.899,2.434 6.636,2.434c1.737,0.001 2.823,-0.023 2.845,-2.434c0.063,-6.935 0.058,-9.286 -0.13,-9.939c-0.518,-1.798 -1.827,-3.855 -1.886,-4.742l-0.225,-10.067c0.071,-3.308 1.965,-3.488 1.978,-4.008c0.015,-0.58 -1.689,-0.807 -2.51,-0.81Z" style="fill:#e79734;"/><path d="M1426.32,537.603c-0.821,-0.002 -2.463,0.325 -2.417,0.796c0.049,0.5 1.898,0.881 1.857,4.038c-0.163,7.729 -0.17,2.655 -0.088,10.065c-0.275,1.626 -2.529,3.533 -3.258,4.903c-2.514,4.721 -2.98,7.653 -2.802,9.764c0.195,2.31 4.9,2.434 6.637,2.434c1.737,0.001 2.822,-0.023 2.844,-2.434c0.063,-6.935 0.059,-9.286 -0.129,-9.939c-0.518,-1.798 -1.827,-3.855 -1.887,-4.742l-0.225,-10.067c0.072,-3.308 1.965,-3.488 1.979,-4.008c0.015,-0.58 -1.689,-0.807 -2.511,-0.81Z" style="fill:#e79734;"/></g><g><path d="M1249.75,763.153c-5.03,-0.014 -15.088,1.989 -14.807,4.871c0.299,3.065 11.622,5.395 11.376,24.737c-0.999,47.335 -1.045,16.261 -0.543,61.644c-1.681,9.959 -15.489,21.641 -19.956,30.032c-15.393,28.917 -18.251,46.875 -17.158,59.805c1.196,14.15 30.011,14.907 40.65,14.911c10.639,0.005 17.288,-0.142 17.422,-14.911c0.385,-42.478 0.358,-56.874 -0.795,-60.876c-3.172,-11.014 -11.189,-23.614 -11.554,-29.047l-1.377,-61.658c0.436,-20.26 12.036,-21.364 12.118,-24.551c0.093,-3.552 -10.345,-4.942 -15.376,-4.957Z" style="fill:#fff;"/><path d="M1319.25,763.153c-5.031,-0.014 -15.088,1.989 -14.807,4.871c0.299,3.065 11.622,5.395 11.376,24.737c-0.999,47.335 -1.045,16.261 -0.543,61.644c-1.681,9.959 -15.489,21.641 -19.956,30.032c-15.393,28.917 -18.251,46.875 -17.158,59.805c1.196,14.15 30.011,14.907 40.65,14.911c10.639,0.005 17.288,-0.142 17.422,-14.911c0.385,-42.478 0.358,-56.874 -0.795,-60.876c-3.172,-11.014 -11.189,-23.614 -11.554,-29.047l-1.377,-61.658c0.436,-20.26 12.035,-21.364 12.118,-24.551c0.093,-3.552 -10.345,-4.942 -15.376,-4.957Z" style="fill:#fff;"/></g><g><path d="M1414.97,763.153c-0.821,-0.002 -2.464,0.325 -2.418,0.795c0.049,0.501 1.898,0.881 1.858,4.039c-0.163,7.728 -0.171,2.655 -0.089,10.064c-0.274,1.626 -2.529,3.534 -3.258,4.904c-2.513,4.721 -2.98,7.653 -2.801,9.764c0.195,2.31 4.899,2.433 6.636,2.434c1.737,0.001 2.823,-0.023 2.845,-2.434c0.063,-6.936 0.058,-9.286 -0.13,-9.939c-0.518,-1.798 -1.827,-3.856 -1.886,-4.743l-0.225,-10.066c0.071,-3.308 1.965,-3.488 1.978,-4.009c0.015,-0.579 -1.689,-0.806 -2.51,-0.809Z" style="fill:#fff;"/><path d="M1426.32,763.153c-0.821,-0.002 -2.463,0.325 -2.417,0.795c0.049,0.501 1.898,0.881 1.857,4.039c-0.163,7.728 -0.17,2.655 -0.088,10.064c-0.275,1.626 -2.529,3.534 -3.258,4.904c-2.514,4.721 -2.98,7.653 -2.802,9.764c0.195,2.31 4.9,2.433 6.637,2.434c1.737,0.001 2.822,-0.023 2.844,-2.434c0.063,-6.936 0.059,-9.286 -0.129,-9.939c-0.518,-1.798 -1.827,-3.856 -1.887,-4.743l-0.225,-10.066c0.072,-3.308 1.965,-3.488 1.979,-4.009c0.015,-0.579 -1.689,-0.806 -2.511,-0.809Z" style="fill:#fff;"/></g></svg>